<?xml version="1.0" encoding="UTF-8" standalone="no"?>
<!-- Created with Inkscape (http://www.inkscape.org/) -->

<svg
   width="76.462006mm"
   height="38.396046mm"
   viewBox="0 0 76.462006 38.396046"
   version="1.1"
   id="svg1"
   inkscape:version="1.3.2 (091e20ef0f, 2023-11-25)"
   sodipodi:docname="bri_stacked.svg"
   xmlns:inkscape="http://www.inkscape.org/namespaces/inkscape"
   xmlns:sodipodi="http://sodipodi.sourceforge.net/DTD/sodipodi-0.dtd"
   xmlns="http://www.w3.org/2000/svg"
   xmlns:svg="http://www.w3.org/2000/svg">
  <sodipodi:namedview
     id="namedview1"
     pagecolor="#505050"
     bordercolor="#eeeeee"
     borderopacity="1"
     inkscape:showpageshadow="0"
     inkscape:pageopacity="0"
     inkscape:pagecheckerboard="0"
     inkscape:deskcolor="#d1d1d1"
     inkscape:document-units="mm"
     inkscape:zoom="0.72823413"
     inkscape:cx="162.72239"
     inkscape:cy="55.613983"
     inkscape:window-width="1916"
     inkscape:window-height="1041"
     inkscape:window-x="0"
     inkscape:window-y="0"
     inkscape:window-maximized="1"
     inkscape:current-layer="layer1" />
  <defs
     id="defs1">
    <clipPath
       clipPathUnits="userSpaceOnUse"
       id="clipPath130">
      <path
         d="M 0,792 H 612 V 0 H 0 Z"
         transform="translate(-296.2324,-418.58981)"
         id="path130" />
    </clipPath>
    <clipPath
       clipPathUnits="userSpaceOnUse"
       id="clipPath132">
      <path
         d="M 0,792 H 612 V 0 H 0 Z"
         transform="translate(-312.61911,-446.43901)"
         id="path132" />
    </clipPath>
    <clipPath
       clipPathUnits="userSpaceOnUse"
       id="clipPath134">
      <path
         d="M 0,792 H 612 V 0 H 0 Z"
         transform="translate(-345.11721,-444.69291)"
         id="path134" />
    </clipPath>
    <clipPath
       clipPathUnits="userSpaceOnUse"
       id="clipPath136">
      <path
         d="M 0,792 H 612 V 0 H 0 Z"
         transform="translate(-379.19921,-456.79001)"
         id="path136" />
    </clipPath>
    <clipPath
       clipPathUnits="userSpaceOnUse"
       id="clipPath138">
      <path
         d="M 0,792 H 612 V 0 H 0 Z"
         transform="translate(-286.44381,-395.99171)"
         id="path138" />
    </clipPath>
    <clipPath
       clipPathUnits="userSpaceOnUse"
       id="clipPath140">
      <path
         d="M 0,792 H 612 V 0 H 0 Z"
         transform="translate(-304.41801,-387.39061)"
         id="path140" />
    </clipPath>
    <clipPath
       clipPathUnits="userSpaceOnUse"
       id="clipPath142">
      <path
         d="M 0,792 H 612 V 0 H 0 Z"
         transform="translate(-325.22661,-387.27641)"
         id="path142" />
    </clipPath>
    <clipPath
       clipPathUnits="userSpaceOnUse"
       id="clipPath144">
      <path
         d="M 0,792 H 612 V 0 H 0 Z"
         transform="translate(-342.79301,-387.39061)"
         id="path144" />
    </clipPath>
    <clipPath
       clipPathUnits="userSpaceOnUse"
       id="clipPath146">
      <path
         d="M 0,792 H 612 V 0 H 0 Z"
         transform="translate(-353.18461,-406.51461)"
         id="path146" />
    </clipPath>
    <clipPath
       clipPathUnits="userSpaceOnUse"
       id="clipPath148">
      <path
         d="M 0,792 H 612 V 0 H 0 Z"
         id="path148" />
    </clipPath>
    <clipPath
       clipPathUnits="userSpaceOnUse"
       id="clipPath150">
      <path
         d="M 0,792 H 612 V 0 H 0 Z"
         transform="translate(-386.55961,-406.77641)"
         id="path150" />
    </clipPath>
    <clipPath
       clipPathUnits="userSpaceOnUse"
       id="clipPath152">
      <path
         d="M 0,792 H 612 V 0 H 0 Z"
         transform="translate(-395.62301,-400.42241)"
         id="path152" />
    </clipPath>
    <clipPath
       clipPathUnits="userSpaceOnUse"
       id="clipPath154">
      <path
         d="M 0,792 H 612 V 0 H 0 Z"
         transform="translate(-200.08591,-448.82471)"
         id="path154" />
    </clipPath>
    <clipPath
       clipPathUnits="userSpaceOnUse"
       id="clipPath156">
      <path
         d="M 0,792 H 612 V 0 H 0 Z"
         transform="translate(-226.8232,-454.25831)"
         id="path156" />
    </clipPath>
    <clipPath
       clipPathUnits="userSpaceOnUse"
       id="clipPath158">
      <path
         d="M 0,792 H 612 V 0 H 0 Z"
         transform="translate(-199.39011,-412.29351)"
         id="path158" />
    </clipPath>
    <clipPath
       clipPathUnits="userSpaceOnUse"
       id="clipPath160">
      <path
         d="M 0,792 H 612 V 0 H 0 Z"
         transform="translate(-200.26371,-428.52981)"
         id="path160" />
    </clipPath>
    <clipPath
       clipPathUnits="userSpaceOnUse"
       id="clipPath162">
      <path
         d="M 0,792 H 612 V 0 H 0 Z"
         transform="translate(-228.2959,-448.73491)"
         id="path162" />
    </clipPath>
    <clipPath
       clipPathUnits="userSpaceOnUse"
       id="clipPath164">
      <path
         d="M 0,792 H 612 V 0 H 0 Z"
         transform="translate(-220.70751,-431.14061)"
         id="path164" />
    </clipPath>
    <clipPath
       clipPathUnits="userSpaceOnUse"
       id="clipPath166">
      <path
         d="M 0,792 H 612 V 0 H 0 Z"
         transform="translate(-233.58301,-421.56101)"
         id="path166" />
    </clipPath>
    <clipPath
       clipPathUnits="userSpaceOnUse"
       id="clipPath168">
      <path
         d="M 0,792 H 612 V 0 H 0 Z"
         transform="translate(-254.98831,-400.22271)"
         id="path168" />
    </clipPath>
    <clipPath
       clipPathUnits="userSpaceOnUse"
       id="clipPath170">
      <path
         d="M 0,792 H 612 V 0 H 0 Z"
         transform="translate(-228.77391,-451.82031)"
         id="path170" />
    </clipPath>
    <clipPath
       clipPathUnits="userSpaceOnUse"
       id="clipPath172">
      <path
         d="M 0,792 H 612 V 0 H 0 Z"
         transform="translate(-230.4976,-388.62301)"
         id="path172" />
    </clipPath>
    <clipPath
       clipPathUnits="userSpaceOnUse"
       id="clipPath174">
      <path
         d="M 0,792 H 612 V 0 H 0 Z"
         transform="translate(-204.41061,-367.44921)"
         id="path174" />
    </clipPath>
    <clipPath
       clipPathUnits="userSpaceOnUse"
       id="clipPath176">
      <path
         d="M 0,792 H 612 V 0 H 0 Z"
         transform="translate(-216.01711,-367.51861)"
         id="path176" />
    </clipPath>
    <clipPath
       clipPathUnits="userSpaceOnUse"
       id="clipPath178">
      <path
         d="M 0,792 H 612 V 0 H 0 Z"
         transform="translate(-229.1689,-367.51861)"
         id="path178" />
    </clipPath>
    <clipPath
       clipPathUnits="userSpaceOnUse"
       id="clipPath180">
      <path
         d="M 0,792 H 612 V 0 H 0 Z"
         transform="translate(-236.46831,-375.36721)"
         id="path180" />
    </clipPath>
    <clipPath
       clipPathUnits="userSpaceOnUse"
       id="clipPath182">
      <path
         d="M 0,792 H 612 V 0 H 0 Z"
         transform="translate(-247.7803,-379.03711)"
         id="path182" />
    </clipPath>
    <clipPath
       clipPathUnits="userSpaceOnUse"
       id="clipPath184">
      <path
         d="M 0,792 H 612 V 0 H 0 Z"
         id="path184" />
    </clipPath>
    <clipPath
       clipPathUnits="userSpaceOnUse"
       id="clipPath186">
      <path
         d="M 0,792 H 612 V 0 H 0 Z"
         transform="translate(-265.16211,-379.03711)"
         id="path186" />
    </clipPath>
    <clipPath
       clipPathUnits="userSpaceOnUse"
       id="clipPath188">
      <path
         d="M 0,792 H 612 V 0 H 0 Z"
         transform="translate(-282.8662,-379.19341)"
         id="path188" />
    </clipPath>
    <clipPath
       clipPathUnits="userSpaceOnUse"
       id="clipPath190">
      <path
         d="M 0,792 H 612 V 0 H 0 Z"
         transform="translate(-295.39651,-375.89751)"
         id="path190" />
    </clipPath>
    <clipPath
       clipPathUnits="userSpaceOnUse"
       id="clipPath192">
      <path
         d="M 0,792 H 612 V 0 H 0 Z"
         transform="translate(-306.62011,-379.03711)"
         id="path192" />
    </clipPath>
    <clipPath
       clipPathUnits="userSpaceOnUse"
       id="clipPath194">
      <path
         d="M 0,792 H 612 V 0 H 0 Z"
         transform="translate(-324.32421,-379.19341)"
         id="path194" />
    </clipPath>
    <clipPath
       clipPathUnits="userSpaceOnUse"
       id="clipPath196">
      <path
         d="M 0,792 H 612 V 0 H 0 Z"
         id="path196" />
    </clipPath>
    <clipPath
       clipPathUnits="userSpaceOnUse"
       id="clipPath198">
      <path
         d="M 0,792 H 612 V 0 H 0 Z"
         transform="translate(-337.06541,-379.03711)"
         id="path198" />
    </clipPath>
    <clipPath
       clipPathUnits="userSpaceOnUse"
       id="clipPath200">
      <path
         d="M 0,792 H 612 V 0 H 0 Z"
         transform="translate(-350.30081,-375.89751)"
         id="path200" />
    </clipPath>
    <clipPath
       clipPathUnits="userSpaceOnUse"
       id="clipPath202">
      <path
         d="M 0,792 H 612 V 0 H 0 Z"
         transform="translate(-361.45021,-375.89751)"
         id="path202" />
    </clipPath>
    <clipPath
       clipPathUnits="userSpaceOnUse"
       id="clipPath204">
      <path
         d="M 0,792 H 612 V 0 H 0 Z"
         transform="translate(-378.53521,-372.69821)"
         id="path204" />
    </clipPath>
    <clipPath
       clipPathUnits="userSpaceOnUse"
       id="clipPath206">
      <path
         d="M 0,792 H 612 V 0 H 0 Z"
         id="path206" />
    </clipPath>
    <clipPath
       clipPathUnits="userSpaceOnUse"
       id="clipPath208">
      <path
         d="M 0,792 H 612 V 0 H 0 Z"
         transform="translate(-389.77151,-379.03711)"
         id="path208" />
    </clipPath>
    <clipPath
       clipPathUnits="userSpaceOnUse"
       id="clipPath210">
      <path
         d="M 0,792 H 612 V 0 H 0 Z"
         transform="translate(-407.47561,-379.19341)"
         id="path210" />
    </clipPath>
    <clipPath
       clipPathUnits="userSpaceOnUse"
       id="clipPath212">
      <path
         d="M 0,792 H 612 V 0 H 0 Z"
         transform="translate(-198.2295,-359.21971)"
         id="path212" />
    </clipPath>
    <clipPath
       clipPathUnits="userSpaceOnUse"
       id="clipPath214">
      <path
         d="M 0,792 H 612 V 0 H 0 Z"
         transform="translate(-214.51561,-363.04591)"
         id="path214" />
    </clipPath>
    <clipPath
       clipPathUnits="userSpaceOnUse"
       id="clipPath216">
      <path
         d="M 0,792 H 612 V 0 H 0 Z"
         id="path216" />
    </clipPath>
    <clipPath
       clipPathUnits="userSpaceOnUse"
       id="clipPath218">
      <path
         d="M 0,792 H 612 V 0 H 0 Z"
         transform="translate(-225.7891,-359.75001)"
         id="path218" />
    </clipPath>
    <clipPath
       clipPathUnits="userSpaceOnUse"
       id="clipPath220">
      <path
         d="M 0,792 H 612 V 0 H 0 Z"
         transform="translate(-236.8555,-362.88961)"
         id="path220" />
    </clipPath>
    <clipPath
       clipPathUnits="userSpaceOnUse"
       id="clipPath222">
      <path
         d="M 0,792 H 612 V 0 H 0 Z"
         transform="translate(-254.59911,-363.04591)"
         id="path222" />
    </clipPath>
    <clipPath
       clipPathUnits="userSpaceOnUse"
       id="clipPath224">
      <path
         d="M 0,792 H 612 V 0 H 0 Z"
         transform="translate(-260.9653,-359.75001)"
         id="path224" />
    </clipPath>
    <clipPath
       clipPathUnits="userSpaceOnUse"
       id="clipPath226">
      <path
         d="M 0,792 H 612 V 0 H 0 Z"
         transform="translate(-281.4868,-351.78811)"
         id="path226" />
    </clipPath>
    <clipPath
       clipPathUnits="userSpaceOnUse"
       id="clipPath228">
      <path
         d="M 0,792 H 612 V 0 H 0 Z"
         transform="translate(-294.53761,-362.88961)"
         id="path228" />
    </clipPath>
    <clipPath
       clipPathUnits="userSpaceOnUse"
       id="clipPath230">
      <path
         d="M 0,792 H 612 V 0 H 0 Z"
         transform="translate(-306.62401,-359.75001)"
         id="path230" />
    </clipPath>
    <clipPath
       clipPathUnits="userSpaceOnUse"
       id="clipPath232">
      <path
         d="M 0,792 H 612 V 0 H 0 Z"
         transform="translate(-322.28221,-363.04591)"
         id="path232" />
    </clipPath>
    <clipPath
       clipPathUnits="userSpaceOnUse"
       id="clipPath234">
      <path
         d="M 0,792 H 612 V 0 H 0 Z"
         transform="translate(-328.72271,-362.88961)"
         id="path234" />
    </clipPath>
    <clipPath
       clipPathUnits="userSpaceOnUse"
       id="clipPath236">
      <path
         d="M 0,792 H 612 V 0 H 0 Z"
         transform="translate(-341.06931,-362.88961)"
         id="path236" />
    </clipPath>
    <clipPath
       clipPathUnits="userSpaceOnUse"
       id="clipPath238">
      <path
         d="M 0,792 H 612 V 0 H 0 Z"
         transform="translate(-359.88281,-351.37111)"
         id="path238" />
    </clipPath>
    <clipPath
       clipPathUnits="userSpaceOnUse"
       id="clipPath240">
      <path
         d="M 0,792 H 612 V 0 H 0 Z"
         transform="translate(-367.21581,-362.88961)"
         id="path240" />
    </clipPath>
    <clipPath
       clipPathUnits="userSpaceOnUse"
       id="clipPath242">
      <path
         d="M 0,792 H 612 V 0 H 0 Z"
         transform="translate(-383.20211,-351.37111)"
         id="path242" />
    </clipPath>
    <clipPath
       clipPathUnits="userSpaceOnUse"
       id="clipPath244">
      <path
         d="M 0,792 H 612 V 0 H 0 Z"
         transform="translate(-394.93161,-363.04591)"
         id="path244" />
    </clipPath>
    <clipPath
       clipPathUnits="userSpaceOnUse"
       id="clipPath246">
      <path
         d="M 0,792 H 612 V 0 H 0 Z"
         transform="translate(-405.48831,-362.88961)"
         id="path246" />
    </clipPath>
  </defs>
  <g
     inkscape:label="Layer 1"
     inkscape:groupmode="layer"
     id="layer1"
     transform="translate(-53.975,-129.64583)">
    <g
       id="g374"
       transform="matrix(0.26458333,0,0,0.26458333,-15.955962,11.538263)">
      <path
         id="path129"
         d="M 0,0 C 2.62,0 4.318,1.472 4.318,5.531 4.318,8.524 3.25,11.289 0,11.289 H -9.122 V 0 Z m -0.485,19.957 c 2.668,0 4.059,1.763 4.059,4.447 0,3.704 -2.151,4.641 -4.059,4.641 H -9.122 V 19.957 Z M -19.747,38.2 h 19.99 c 9.929,0 13.746,-5.434 13.746,-12.777 0,-4.204 -2.038,-9.348 -6.679,-9.994 4.35,-0.744 7.617,-4.885 7.617,-10.415 0,-9.606 -4.48,-14.167 -14.442,-14.167 h -20.232 z"
         style="fill:#0d0d0d;fill-opacity:1;fill-rule:nonzero;stroke:none"
         transform="matrix(1.3333333,0,0,-1.3333333,394.97653,497.88027)"
         clip-path="url(#clipPath130)" />
      <path
         id="path131"
         d="m 0,0 c 0,8.9 6.549,10.399 11.063,10.351 0,0 15.298,-0.259 20.975,-1.035 V 0.469 H 13.974 c -3.365,0 -3.365,-1.876 -3.365,-3.622 v -5.369 l 18.357,-0.696 v -8.765 l -18.357,-0.599 v -5.369 c 0.017,-3.429 2.136,-3.363 4.011,-3.363 h 17.418 v -8.783 c -4.997,-0.679 -20.329,-1.1 -20.329,-1.1 C 7.503,-37.358 0,-36.453 0,-27.201 Z"
         style="fill:#0d0d0d;fill-opacity:1;fill-rule:nonzero;stroke:none"
         transform="matrix(1.3333333,0,0,-1.3333333,416.82547,460.748)"
         clip-path="url(#clipPath132)" />
      <path
         id="path133"
         d="m 0,0 c 0,9.38 5.563,12.339 12.808,12.485 8.039,0.194 14.879,-0.599 19.084,-1.99 V 2.2 C 27.752,2.604 19.406,2.846 16.204,2.846 12.452,2.895 10.608,2.684 10.608,-0.971 v -1.601 c 0,-2.976 0.971,-3.913 4.562,-3.913 h 6.856 c 9.526,0 11.596,-7.861 11.596,-13.068 v -2.701 c 0,-11.32 -6.711,-13.52 -13.116,-13.52 -9.864,0 -13.439,0.275 -19.034,2.054 v 8.297 c 2.587,-0.259 10.592,-0.712 16.609,-0.712 2.749,0 4.932,0.567 4.932,3.445 v 1.876 c 0,2.328 -0.711,3.719 -3.898,3.719 H 12.484 C 0.68,-17.095 0,-7.666 0,-4.027 Z"
         style="fill:#0d0d0d;fill-opacity:1;fill-rule:nonzero;stroke:none"
         transform="matrix(1.3333333,0,0,-1.3333333,460.15627,463.07613)"
         clip-path="url(#clipPath134)" />
      <path
         id="path135"
         d="M 0,0 H 35.773 V -9.639 H 22.997 V -47.354 H 12.388 V -9.639 H 0 Z"
         style="fill:#0d0d0d;fill-opacity:1;fill-rule:nonzero;stroke:none"
         transform="matrix(1.3333333,0,0,-1.3333333,505.59893,446.94667)"
         clip-path="url(#clipPath136)" />
      <path
         id="path137"
         d="M 0,0 C 1.621,0 2.085,0.635 2.085,2.989 2.085,5.131 1.434,5.88 0,5.88 H -4.553 V 0 Z M -9.92,10.523 H 0.611 c 3.95,0 6.849,-1.734 6.849,-7.534 0,-5.799 -2.199,-6.564 -3.672,-7.085 l 4.333,-9.229 H 2.069 l -3.551,8.765 -3.095,0.455 v -9.22 H -9.92 Z"
         style="fill:#0d0d0d;fill-opacity:1;fill-rule:nonzero;stroke:none"
         transform="matrix(1.3333333,0,0,-1.3333333,381.92507,528.01107)"
         clip-path="url(#clipPath138)" />
      <path
         id="path139"
         d="m 0,0 c 3.372,0 4.357,1.222 4.357,7.037 0,6.59 -1.026,7.396 -4.357,7.396 -3.233,0 -4.374,-0.587 -4.374,-7.396 C -4.374,1.206 -3.681,0 0,0 m 0,19.287 c 5.636,0 9.7,-1.075 9.7,-12.25 C 9.7,-3.485 5.864,-4.854 0,-4.854 c -5.864,0 -9.717,1.041 -9.717,11.891 0,11.175 4.244,12.25 9.717,12.25"
         style="fill:#0d0d0d;fill-opacity:1;fill-rule:nonzero;stroke:none"
         transform="matrix(1.3333333,0,0,-1.3333333,405.89067,539.4792)"
         clip-path="url(#clipPath140)" />
      <path
         id="path141"
         d="m 0,0 c 1.319,0 2.175,0.742 2.175,2.786 0,1.506 -0.538,2.9 -2.175,2.9 H -4.595 V 0 Z m -0.245,10.051 c 1.345,0 2.045,0.888 2.045,2.241 0,1.864 -1.084,2.336 -2.045,2.336 h -4.35 v -4.577 z m -9.7,9.187 H 0.122 c 5.001,0 6.923,-2.736 6.923,-6.434 C 7.045,10.687 6.019,8.097 3.681,7.77 5.872,7.396 7.518,5.312 7.518,2.525 7.518,-2.313 5.261,-4.609 0.244,-4.609 H -9.945 Z"
         style="fill:#0d0d0d;fill-opacity:1;fill-rule:nonzero;stroke:none"
         transform="matrix(1.3333333,0,0,-1.3333333,433.63547,539.63147)"
         clip-path="url(#clipPath142)" />
      <path
         id="path143"
         d="m 0,0 c 3.372,0 4.357,1.222 4.357,7.037 0,6.59 -1.026,7.396 -4.357,7.396 -3.233,0 -4.374,-0.587 -4.374,-7.396 C -4.374,1.206 -3.682,0 0,0 m 0,19.287 c 5.636,0 9.7,-1.075 9.7,-12.25 C 9.7,-3.485 5.864,-4.854 0,-4.854 c -5.864,0 -9.717,1.041 -9.717,11.891 0,11.175 4.243,12.25 9.717,12.25"
         style="fill:#0d0d0d;fill-opacity:1;fill-rule:nonzero;stroke:none"
         transform="matrix(1.3333333,0,0,-1.3333333,457.05733,539.4792)"
         clip-path="url(#clipPath144)" />
      <path
         id="path145"
         d="M 0,0 H 18.016 V -4.854 H 11.582 V -23.848 H 6.238 V -4.854 H 0 Z"
         style="fill:#0d0d0d;fill-opacity:1;fill-rule:nonzero;stroke:none"
         transform="matrix(1.3333333,0,0,-1.3333333,470.9128,513.98053)"
         clip-path="url(#clipPath146)" />
      <path
         id="path147"
         d="m 372.03,406.515 h 5.343 v -23.848 h -5.343 z"
         style="fill:#0d0d0d;fill-opacity:1;fill-rule:nonzero;stroke:none"
         transform="matrix(1.3333333,0,0,-1.3333333,0,1056)"
         clip-path="url(#clipPath148)" />
      <path
         id="path149"
         d="m 0,0 c 3.942,0 5.767,-0.294 8.438,-1.182 v -4.17 c -0.033,0 -3.706,0.497 -6.972,0.497 -3.07,0 -4.292,-0.367 -4.292,-7.331 0,-5.342 0.765,-7.264 4.316,-7.264 3.421,0 6.948,0.276 6.948,0.276 v -4.171 C 6.353,-24.085 4.04,-24.378 0,-24.305 -6.027,-24.231 -8.169,-19.882 -8.169,-12.12 -8.169,-4.497 -6.483,0 0,0"
         style="fill:#0d0d0d;fill-opacity:1;fill-rule:nonzero;stroke:none"
         transform="matrix(1.3333333,0,0,-1.3333333,515.4128,513.63147)"
         clip-path="url(#clipPath150)" />
      <path
         id="path151"
         d="m 0,0 c 0,4.724 2.802,6.215 6.45,6.288 4.048,0.098 7.493,-0.301 9.612,-1.001 V 1.107 C 13.977,1.311 9.773,1.434 8.161,1.434 6.271,1.458 5.343,1.353 5.343,-0.489 v -0.806 c 0,-1.498 0.489,-1.971 2.297,-1.971 h 3.453 c 4.797,0 5.84,-3.958 5.84,-6.581 v -1.361 c 0,-5.701 -3.38,-6.808 -6.606,-6.808 -4.968,0 -6.767,0.139 -9.586,1.035 v 4.178 c 1.303,-0.13 5.335,-0.359 8.364,-0.359 1.385,0 2.485,0.285 2.485,1.736 v 0.944 c 0,1.173 -0.359,1.873 -1.963,1.873 H 6.287 C 0.342,-8.609 0,-3.86 0,-2.028 Z"
         style="fill:#0d0d0d;fill-opacity:1;fill-rule:nonzero;stroke:none"
         transform="matrix(1.3333333,0,0,-1.3333333,527.49733,522.10347)"
         clip-path="url(#clipPath152)" />
      <path
         id="path153"
         d="M 0,0 C 1.218,4.548 5.892,7.247 10.439,6.03 14.987,4.812 17.687,0.138 16.469,-4.41 15.251,-8.957 10.578,-11.657 6.03,-10.439 1.482,-9.222 -1.218,-4.548 0,0 m -1.828,-15.67 c 1.656,-1.541 3.341,-2.963 5.034,-4.281 2.999,0.411 6.096,1.017 9.247,1.872 3.318,0.899 6.453,1.999 9.375,3.236 1.04,2.606 1.979,5.358 2.756,8.26 0.817,3.054 1.4,6.053 1.802,8.965 -1.472,1.9 -3.09,3.791 -4.851,5.643 H -1.828 Z"
         style="fill:#0d0d0d;fill-opacity:1;fill-rule:nonzero;stroke:none"
         transform="matrix(1.3333333,0,0,-1.3333333,266.7812,457.56707)"
         clip-path="url(#clipPath154)" />
      <path
         id="path155"
         d="M 0,0 C 0.08,0.876 0.14,1.739 0.184,2.591 H -2.265 C -1.483,1.733 -0.726,0.869 0,0"
         style="fill:#0d0d0d;fill-opacity:1;fill-rule:nonzero;stroke:none"
         transform="matrix(1.3333333,0,0,-1.3333333,302.43093,450.32227)"
         clip-path="url(#clipPath156)" />
      <path
         id="path157"
         d="M 0,0 C 4.537,-1.214 9.701,1.694 14.347,7.331 10.736,9.095 7,11.44 3.296,14.295 1.793,14.095 0.317,13.946 -1.132,13.843 V 0.409 C -0.764,0.248 -0.39,0.104 0,0"
         style="fill:#0d0d0d;fill-opacity:1;fill-rule:nonzero;stroke:none"
         transform="matrix(1.3333333,0,0,-1.3333333,265.85347,506.27533)"
         clip-path="url(#clipPath158)" />
      <path
         id="path159"
         d="M 0,0 C -0.671,0.562 -1.339,1.142 -2.005,1.732 V -0.14 C -1.342,-0.101 -0.678,-0.061 0,0"
         style="fill:#0d0d0d;fill-opacity:1;fill-rule:nonzero;stroke:none"
         transform="matrix(1.3333333,0,0,-1.3333333,267.01827,484.62693)"
         clip-path="url(#clipPath160)" />
      <path
         id="path161"
         d="m 0,0 c -0.405,-2.313 -0.918,-4.667 -1.556,-7.047 -0.594,-2.22 -1.272,-4.366 -2.012,-6.435 3.185,1.528 6.06,3.218 8.513,5.017 C 3.679,-5.716 2.013,-2.863 0,0"
         style="fill:#0d0d0d;fill-opacity:1;fill-rule:nonzero;stroke:none"
         transform="matrix(1.3333333,0,0,-1.3333333,304.39453,457.6868)"
         clip-path="url(#clipPath162)" />
      <path
         id="path163"
         d="m 0,0 c -2.423,-0.92 -4.966,-1.748 -7.608,-2.464 -2.485,-0.673 -4.942,-1.208 -7.353,-1.628 3.217,-2.277 6.43,-4.135 9.5,-5.484 C -3.48,-6.849 -1.635,-3.609 0,0"
         style="fill:#0d0d0d;fill-opacity:1;fill-rule:nonzero;stroke:none"
         transform="matrix(1.3333333,0,0,-1.3333333,294.27667,481.14587)"
         clip-path="url(#clipPath164)" />
      <path
         id="path165"
         d="M 0,0 C 3.362,3.391 3.337,9.463 0.618,16.44 -2.464,14.366 -6.027,12.44 -9.967,10.757 -11.732,6.388 -13.8,2.455 -16.042,-0.914 -9.207,-3.425 -3.3,-3.328 0,0"
         style="fill:#0d0d0d;fill-opacity:1;fill-rule:nonzero;stroke:none"
         transform="matrix(1.3333333,0,0,-1.3333333,311.444,493.91867)"
         clip-path="url(#clipPath166)" />
      <path
         id="path167"
         d="m 0,0 c -3.973,-3.978 -3.968,-10.424 0.01,-14.396 3.978,-3.973 10.424,-3.969 14.397,0.009 1.634,1.636 2.584,3.692 2.872,5.819 v 2.751 C 16.99,-3.686 16.037,-1.627 14.397,0.01 10.418,3.983 3.973,3.979 0,0"
         style="fill:#0d0d0d;fill-opacity:1;fill-rule:nonzero;stroke:none"
         transform="matrix(1.3333333,0,0,-1.3333333,339.9844,522.36973)"
         clip-path="url(#clipPath168)" />
      <path
         id="path169"
         d="m 0,0 c 2.581,-3.357 4.732,-6.743 6.405,-10.028 5.587,4.652 8.455,9.806 7.231,14.325 -0.068,0.249 -0.151,0.493 -0.242,0.732 H 0.496 C 0.394,3.39 0.229,1.711 0,0"
         style="fill:#0d0d0d;fill-opacity:1;fill-rule:nonzero;stroke:none"
         transform="matrix(1.3333333,0,0,-1.3333333,305.03187,453.57293)"
         clip-path="url(#clipPath170)" />
      <path
         id="path171"
         d="m 0,0 c -0.402,2.908 -0.404,5.86 -0.006,8.77 l -6.266,3.638 c 0.966,4.606 2.761,9.071 5.415,13.148 l 7.026,-1.855 c 0.874,1.153 1.83,2.266 2.881,3.319 1.052,1.052 2.162,2.009 3.315,2.885 L 10.5,36.929 c 4.073,2.659 8.536,4.46 13.141,5.433 l 3.647,-6.261 c 2.908,0.402 5.86,0.404 8.77,0.006 l 3.637,6.266 c 0.696,-0.146 1.387,-0.317 2.075,-0.501 V 68.227 H 15.771 C 17.077,62.686 13.123,56.356 5.79,50.854 9.691,42.127 10.032,34.37 5.873,30.175 1.773,26.04 -5.825,26.247 -14.43,29.917 -20.019,22.389 -26.489,18.372 -32.123,19.879 c -0.039,0.011 -0.077,0.025 -0.116,0.036 V -5.782 H -5.74 c -0.192,0.708 -0.37,1.419 -0.521,2.136 z"
         style="fill:#0d0d0d;fill-opacity:1;fill-rule:nonzero;stroke:none"
         transform="matrix(1.3333333,0,0,-1.3333333,307.33013,537.836)"
         clip-path="url(#clipPath172)" />
      <path
         id="path173"
         d="M 0,0 C 0.795,0 1.31,0.446 1.31,1.678 1.31,2.586 0.986,3.425 0,3.425 H -2.767 V 0 Z m -0.147,6.054 c 0.81,0 1.231,0.535 1.231,1.349 0,1.123 -0.652,1.408 -1.231,1.408 h -2.62 V 6.054 Z m -5.843,5.534 h 6.064 c 3.012,0 4.17,-1.649 4.17,-3.876 0,-1.275 -0.619,-2.835 -2.026,-3.031 1.319,-0.226 2.31,-1.482 2.31,-3.16 0,-2.914 -1.359,-4.297 -4.381,-4.297 H -5.99 Z"
         style="fill:#0d0d0d;fill-opacity:1;fill-rule:nonzero;stroke:none"
         transform="matrix(1.3333333,0,0,-1.3333333,272.54747,566.06773)"
         clip-path="url(#clipPath174)" />
      <path
         id="path175"
         d="M 0,0 C 2.031,0 2.625,0.735 2.625,4.238 2.625,8.207 2.006,8.692 0,8.692 -1.947,8.692 -2.634,8.339 -2.634,4.238 -2.634,0.726 -2.217,0 0,0 m 0,11.616 c 3.395,0 5.843,-0.647 5.843,-7.378 0,-6.338 -2.311,-7.162 -5.843,-7.162 -3.532,0 -5.853,0.628 -5.853,7.162 0,6.731 2.557,7.378 5.853,7.378"
         style="fill:#0d0d0d;fill-opacity:1;fill-rule:nonzero;stroke:none"
         transform="matrix(1.3333333,0,0,-1.3333333,288.0228,565.9752)"
         clip-path="url(#clipPath176)" />
      <path
         id="path177"
         d="M 0,0 C 2.031,0 2.625,0.735 2.625,4.238 2.625,8.207 2.006,8.692 0,8.692 -1.947,8.692 -2.634,8.339 -2.634,4.238 -2.634,0.726 -2.217,0 0,0 m 0,11.616 c 3.395,0 5.843,-0.647 5.843,-7.378 0,-6.338 -2.311,-7.162 -5.843,-7.162 -3.532,0 -5.853,0.628 -5.853,7.162 0,6.731 2.557,7.378 5.853,7.378"
         style="fill:#0d0d0d;fill-opacity:1;fill-rule:nonzero;stroke:none"
         transform="matrix(1.3333333,0,0,-1.3333333,305.55853,565.9752)"
         clip-path="url(#clipPath178)" />
      <path
         id="path179"
         d="M 0,0 C 0,2.846 1.687,3.743 3.885,3.787 6.324,3.846 8.398,3.605 9.674,3.184 V 0.667 C 8.418,0.79 5.887,0.863 4.916,0.863 3.777,0.878 3.218,0.814 3.218,-0.294 V -0.78 c 0,-0.903 0.295,-1.187 1.384,-1.187 h 2.08 c 2.889,0 3.517,-2.385 3.517,-3.964 V -6.75 c 0,-3.435 -2.036,-4.102 -3.978,-4.102 -2.993,0 -4.077,0.084 -5.774,0.623 v 2.517 c 0.784,-0.078 3.213,-0.216 5.038,-0.216 0.834,0 1.496,0.172 1.496,1.045 v 0.57 c 0,0.706 -0.216,1.127 -1.182,1.127 H 3.787 C 0.206,-5.186 0,-2.325 0,-1.222 Z"
         style="fill:#0d0d0d;fill-opacity:1;fill-rule:nonzero;stroke:none"
         transform="matrix(1.3333333,0,0,-1.3333333,315.29107,555.5104)"
         clip-path="url(#clipPath180)" />
      <path
         id="path181"
         d="M 0,0 H 10.852 V -2.924 H 6.976 v -11.44 H 3.758 v 11.44 H 0 Z"
         style="fill:#0d0d0d;fill-opacity:1;fill-rule:nonzero;stroke:none"
         transform="matrix(1.3333333,0,0,-1.3333333,330.37373,550.6172)"
         clip-path="url(#clipPath182)" />
      <path
         id="path183"
         d="m 260.098,379.037 h 3.218 v -14.364 h -3.218 z"
         style="fill:#0d0d0d;fill-opacity:1;fill-rule:nonzero;stroke:none"
         transform="matrix(1.3333333,0,0,-1.3333333,0,1056)"
         clip-path="url(#clipPath184)" />
      <path
         id="path185"
         d="m 0,0 h 3.257 l 4.99,-8.419 V 0 h 3.218 V -14.364 H 8.247 l -5.009,8.271 v -8.271 H 0 Z"
         style="fill:#0d0d0d;fill-opacity:1;fill-rule:nonzero;stroke:none"
         transform="matrix(1.3333333,0,0,-1.3333333,353.54947,550.6172)"
         clip-path="url(#clipPath186)" />
      <path
         id="path187"
         d="m 0,0 c 2.595,0 3.39,-0.068 5.72,-0.677 v -2.482 c -0.117,0 -2.482,0.383 -4.837,0.383 -2.016,0 -2.389,-1.133 -2.389,-4.523 0,-3.503 0.289,-4.332 2.188,-4.342 1.285,-0.005 2.002,0.903 2.002,0.903 v 2.085 H 1.138 v 2.011 c 0.859,0.408 2.061,0.491 3.429,0.491 0.412,0 0.864,-0.02 1.334,-0.059 v -8.311 h -2.29 l -0.888,0.962 c -0.599,-0.648 -1.158,-0.986 -2.777,-1.059 -4.062,-0.201 -4.67,3.286 -4.67,7.358 C -4.724,-2.997 -3.905,0 0,0"
         style="fill:#0d0d0d;fill-opacity:1;fill-rule:nonzero;stroke:none"
         transform="matrix(1.3333333,0,0,-1.3333333,377.15493,550.4088)"
         clip-path="url(#clipPath188)" />
      <path
         id="path189"
         d="m 0,0 c 0,2.699 1.986,3.154 3.355,3.14 0,0 4.642,-0.079 6.363,-0.315 V 0.142 H 4.239 c -1.021,0 -1.021,-0.569 -1.021,-1.099 V -2.586 L 8.786,-2.797 V -5.455 L 3.218,-5.637 v -1.629 c 0.005,-1.04 0.648,-1.02 1.217,-1.02 H 9.718 V -10.95 C 8.203,-11.156 3.552,-11.283 3.552,-11.283 2.276,-11.333 0,-11.058 0,-8.252 Z"
         style="fill:#0d0d0d;fill-opacity:1;fill-rule:nonzero;stroke:none"
         transform="matrix(1.3333333,0,0,-1.3333333,393.862,554.80333)"
         clip-path="url(#clipPath190)" />
      <path
         id="path191"
         d="m 0,0 h 3.257 l 4.99,-8.419 V 0 h 3.218 V -14.364 H 8.247 l -5.01,8.271 v -8.271 H 0 Z"
         style="fill:#0d0d0d;fill-opacity:1;fill-rule:nonzero;stroke:none"
         transform="matrix(1.3333333,0,0,-1.3333333,408.8268,550.6172)"
         clip-path="url(#clipPath192)" />
      <path
         id="path193"
         d="m 0,0 c 2.596,0 3.39,-0.068 5.721,-0.677 v -2.482 c -0.118,0 -2.483,0.383 -4.838,0.383 -2.016,0 -2.389,-1.133 -2.389,-4.523 0,-3.503 0.289,-4.332 2.188,-4.342 1.285,-0.005 2.002,0.903 2.002,0.903 v 2.085 H 1.139 v 2.011 c 0.857,0.408 2.06,0.491 3.428,0.491 0.412,0 0.864,-0.02 1.334,-0.059 v -8.311 h -2.29 l -0.888,0.962 c -0.599,-0.648 -1.159,-0.986 -2.777,-1.059 -4.061,-0.201 -4.671,3.286 -4.671,7.358 C -4.725,-2.997 -3.904,0 0,0"
         style="fill:#0d0d0d;fill-opacity:1;fill-rule:nonzero;stroke:none"
         transform="matrix(1.3333333,0,0,-1.3333333,432.43227,550.4088)"
         clip-path="url(#clipPath194)" />
      <path
         id="path195"
         d="m 332.001,379.037 h 3.218 v -14.364 h -3.218 z"
         style="fill:#0d0d0d;fill-opacity:1;fill-rule:nonzero;stroke:none"
         transform="matrix(1.3333333,0,0,-1.3333333,0,1056)"
         clip-path="url(#clipPath196)" />
      <path
         id="path197"
         d="m 0,0 h 3.257 l 4.99,-8.419 V 0 h 3.218 V -14.364 H 8.247 l -5.01,8.271 v -8.271 H 0 Z"
         style="fill:#0d0d0d;fill-opacity:1;fill-rule:nonzero;stroke:none"
         transform="matrix(1.3333333,0,0,-1.3333333,449.42053,550.6172)"
         clip-path="url(#clipPath198)" />
      <path
         id="path199"
         d="m 0,0 c 0,2.699 1.986,3.154 3.355,3.14 0,0 4.641,-0.079 6.364,-0.315 V 0.142 H 4.238 c -1.019,0 -1.019,-0.569 -1.019,-1.099 V -2.586 L 8.786,-2.797 V -5.455 L 3.219,-5.637 v -1.629 c 0.004,-1.04 0.646,-1.02 1.217,-1.02 H 9.719 V -10.95 C 8.203,-11.156 3.552,-11.283 3.552,-11.283 2.275,-11.333 0,-11.058 0,-8.252 Z"
         style="fill:#0d0d0d;fill-opacity:1;fill-rule:nonzero;stroke:none"
         transform="matrix(1.3333333,0,0,-1.3333333,467.06773,554.80333)"
         clip-path="url(#clipPath200)" />
      <path
         id="path201"
         d="m 0,0 c 0,2.699 1.986,3.154 3.355,3.14 0,0 4.642,-0.079 6.363,-0.315 V 0.142 H 4.239 c -1.021,0 -1.021,-0.569 -1.021,-1.099 V -2.586 L 8.786,-2.797 V -5.455 L 3.218,-5.637 v -1.629 c 0.006,-1.04 0.648,-1.02 1.217,-1.02 H 9.718 V -10.95 C 8.202,-11.156 3.552,-11.283 3.552,-11.283 2.276,-11.333 0,-11.058 0,-8.252 Z"
         style="fill:#0d0d0d;fill-opacity:1;fill-rule:nonzero;stroke:none"
         transform="matrix(1.3333333,0,0,-1.3333333,481.9336,554.80333)"
         clip-path="url(#clipPath202)" />
      <path
         id="path203"
         d="M 0,0 C 0.977,0 1.256,0.383 1.256,1.801 1.256,3.091 0.863,3.542 0,3.542 H -2.742 V 0 Z m -5.975,6.339 h 6.344 c 2.379,0 4.125,-1.045 4.125,-4.538 0,-3.493 -1.324,-3.954 -2.213,-4.268 L 4.892,-8.025 H 1.246 l -2.139,5.278 -1.863,0.275 v -5.553 h -3.219 z"
         style="fill:#0d0d0d;fill-opacity:1;fill-rule:nonzero;stroke:none"
         transform="matrix(1.3333333,0,0,-1.3333333,504.7136,559.06907)"
         clip-path="url(#clipPath204)" />
      <path
         id="path205"
         d="m 384.707,379.037 h 3.218 v -14.364 h -3.218 z"
         style="fill:#0d0d0d;fill-opacity:1;fill-rule:nonzero;stroke:none"
         transform="matrix(1.3333333,0,0,-1.3333333,0,1056)"
         clip-path="url(#clipPath206)" />
      <path
         id="path207"
         d="M 0,0 H 3.257 L 8.246,-8.419 V 0 h 3.219 V -14.364 H 8.246 l -5.009,8.271 v -8.271 H 0 Z"
         style="fill:#0d0d0d;fill-opacity:1;fill-rule:nonzero;stroke:none"
         transform="matrix(1.3333333,0,0,-1.3333333,519.69533,550.6172)"
         clip-path="url(#clipPath208)" />
      <path
         id="path209"
         d="m 0,0 c 2.595,0 3.39,-0.068 5.72,-0.677 v -2.482 c -0.117,0 -2.483,0.383 -4.836,0.383 -2.018,0 -2.39,-1.133 -2.39,-4.523 0,-3.503 0.289,-4.332 2.189,-4.342 1.285,-0.005 2.001,0.903 2.001,0.903 v 2.085 H 1.138 v 2.011 c 0.859,0.408 2.06,0.491 3.429,0.491 0.412,0 0.864,-0.02 1.334,-0.059 v -8.311 H 3.61 l -0.887,0.962 c -0.599,-0.648 -1.158,-0.986 -2.777,-1.059 -4.062,-0.201 -4.67,3.286 -4.67,7.358 C -4.724,-2.997 -3.905,0 0,0"
         style="fill:#0d0d0d;fill-opacity:1;fill-rule:nonzero;stroke:none"
         transform="matrix(1.3333333,0,0,-1.3333333,543.3008,550.4088)"
         clip-path="url(#clipPath210)" />
      <path
         id="path211"
         d="M 0,0 C 0,2.846 1.687,3.743 3.885,3.787 6.324,3.846 8.399,3.605 9.674,3.184 V 0.667 C 8.418,0.79 5.887,0.863 4.916,0.863 3.777,0.878 3.218,0.814 3.218,-0.294 V -0.78 c 0,-0.903 0.295,-1.187 1.384,-1.187 h 2.08 c 2.889,0 3.517,-2.385 3.517,-3.964 V -6.75 c 0,-3.435 -2.036,-4.102 -3.978,-4.102 -2.993,0 -4.077,0.084 -5.774,0.623 v 2.517 c 0.784,-0.078 3.213,-0.216 5.038,-0.216 0.834,0 1.496,0.172 1.496,1.045 v 0.57 c 0,0.706 -0.216,1.127 -1.182,1.127 H 3.787 C 0.206,-5.186 0,-2.325 0,-1.222 Z"
         style="fill:#0d0d0d;fill-opacity:1;fill-rule:nonzero;stroke:none"
         transform="matrix(1.3333333,0,0,-1.3333333,264.306,577.0404)"
         clip-path="url(#clipPath212)" />
      <path
         id="path213"
         d="m 0,0 c 2.375,0 3.473,-0.176 5.083,-0.711 v -2.512 c -0.021,0 -2.233,0.299 -4.2,0.299 -1.849,0 -2.585,-0.221 -2.585,-4.415 0,-3.218 0.461,-4.376 2.6,-4.376 2.06,0 4.185,0.167 4.185,0.167 V -14.06 C 3.827,-14.506 2.433,-14.683 0,-14.639 c -3.63,0.045 -4.92,2.664 -4.92,7.339 0,4.592 1.015,7.3 4.92,7.3"
         style="fill:#0d0d0d;fill-opacity:1;fill-rule:nonzero;stroke:none"
         transform="matrix(1.3333333,0,0,-1.3333333,286.0208,571.9388)"
         clip-path="url(#clipPath214)" />
      <path
         id="path215"
         d="m 220.956,362.89 h 3.218 v -14.364 h -3.218 z"
         style="fill:#0d0d0d;fill-opacity:1;fill-rule:nonzero;stroke:none"
         transform="matrix(1.3333333,0,0,-1.3333333,0,1056)"
         clip-path="url(#clipPath216)" />
      <path
         id="path217"
         d="m 0,0 c 0,2.699 1.986,3.154 3.355,3.14 0,0 4.642,-0.079 6.363,-0.315 V 0.142 H 4.239 c -1.021,0 -1.021,-0.569 -1.021,-1.099 V -2.586 L 8.786,-2.797 V -5.455 L 3.218,-5.637 v -1.629 c 0.005,-1.04 0.648,-1.02 1.217,-1.02 H 9.718 V -10.95 C 8.203,-11.156 3.552,-11.283 3.552,-11.283 2.276,-11.333 0,-11.058 0,-8.252 Z"
         style="fill:#0d0d0d;fill-opacity:1;fill-rule:nonzero;stroke:none"
         transform="matrix(1.3333333,0,0,-1.3333333,301.05213,576.33333)"
         clip-path="url(#clipPath218)" />
      <path
         id="path219"
         d="m 0,0 h 3.257 l 4.99,-8.419 V 0 h 3.218 V -14.364 H 8.247 l -5.009,8.271 v -8.271 H 0 Z"
         style="fill:#0d0d0d;fill-opacity:1;fill-rule:nonzero;stroke:none"
         transform="matrix(1.3333333,0,0,-1.3333333,315.80733,572.1472)"
         clip-path="url(#clipPath220)" />
      <path
         id="path221"
         d="m 0,0 c 2.375,0 3.473,-0.176 5.083,-0.711 v -2.512 c -0.021,0 -2.233,0.299 -4.2,0.299 -1.849,0 -2.585,-0.221 -2.585,-4.415 0,-3.218 0.461,-4.376 2.6,-4.376 2.06,0 4.185,0.167 4.185,0.167 V -14.06 C 3.827,-14.506 2.433,-14.683 0,-14.639 c -3.63,0.045 -4.92,2.664 -4.92,7.339 0,4.592 1.015,7.3 4.92,7.3"
         style="fill:#0d0d0d;fill-opacity:1;fill-rule:nonzero;stroke:none"
         transform="matrix(1.3333333,0,0,-1.3333333,339.46547,571.9388)"
         clip-path="url(#clipPath222)" />
      <path
         id="path223"
         d="m 0,0 c 0,2.699 1.986,3.154 3.355,3.14 0,0 4.642,-0.079 6.363,-0.315 V 0.142 H 4.239 c -1.021,0 -1.021,-0.569 -1.021,-1.099 V -2.586 L 8.786,-2.797 V -5.455 L 3.218,-5.637 v -1.629 c 0.005,-1.04 0.648,-1.02 1.217,-1.02 H 9.718 V -10.95 C 8.203,-11.156 3.552,-11.283 3.552,-11.283 2.276,-11.333 0,-11.058 0,-8.252 Z"
         style="fill:#0d0d0d;fill-opacity:1;fill-rule:nonzero;stroke:none"
         transform="matrix(1.3333333,0,0,-1.3333333,347.95373,576.33333)"
         clip-path="url(#clipPath224)" />
      <path
         id="path225"
         d="M 0,0 0.775,0.765 -0.814,2.859 -1.639,2.114 C -2.502,1.349 -2.33,0.701 -1.928,0.19 -1.496,-0.339 -0.75,-0.751 0,0 m -3.621,4.008 1.246,1.094 -0.927,1.374 c -1.55,2.099 0,4.331 1.624,4.586 2.365,0.377 4.101,-0.059 5.514,-0.392 V 8.305 H 0.883 C -0.54,8.305 -0.515,7.721 0.324,6.559 L 3.154,2.644 5.597,4.847 6.74,3.434 5.504,1.319 4.788,0.466 7.614,-3.263 H 3.826 l -1.3,1.782 -1.236,-1.081 c -1.251,-1.088 -4.356,-1.309 -5.838,0.909 -1.369,1.981 -0.75,4.179 0.927,5.661"
         style="fill:#0d0d0d;fill-opacity:1;fill-rule:nonzero;stroke:none"
         transform="matrix(1.3333333,0,0,-1.3333333,375.31573,586.9492)"
         clip-path="url(#clipPath226)" />
      <path
         id="path227"
         d="M 0,0 H 10.852 V -2.924 H 6.976 v -11.44 H 3.758 v 11.44 H 0 Z"
         style="fill:#0d0d0d;fill-opacity:1;fill-rule:nonzero;stroke:none"
         transform="matrix(1.3333333,0,0,-1.3333333,392.7168,572.1472)"
         clip-path="url(#clipPath228)" />
      <path
         id="path229"
         d="m 0,0 c 0,2.699 1.986,3.154 3.355,3.14 0,0 4.642,-0.079 6.363,-0.315 V 0.142 H 4.239 c -1.021,0 -1.021,-0.569 -1.021,-1.099 V -2.586 L 8.786,-2.797 V -5.455 L 3.218,-5.637 v -1.629 c 0.006,-1.04 0.648,-1.02 1.217,-1.02 H 9.718 V -10.95 C 8.202,-11.156 3.552,-11.283 3.552,-11.283 2.276,-11.333 0,-11.058 0,-8.252 Z"
         style="fill:#0d0d0d;fill-opacity:1;fill-rule:nonzero;stroke:none"
         transform="matrix(1.3333333,0,0,-1.3333333,408.832,576.33333)"
         clip-path="url(#clipPath230)" />
      <path
         id="path231"
         d="m 0,0 c 2.374,0 3.474,-0.176 5.083,-0.711 v -2.512 c -0.021,0 -2.232,0.299 -4.2,0.299 -1.849,0 -2.585,-0.221 -2.585,-4.415 0,-3.218 0.461,-4.376 2.599,-4.376 2.061,0 4.186,0.167 4.186,0.167 V -14.06 C 3.827,-14.506 2.433,-14.683 0,-14.639 c -3.63,0.045 -4.921,2.664 -4.921,7.339 0,4.592 1.016,7.3 4.921,7.3"
         style="fill:#0d0d0d;fill-opacity:1;fill-rule:nonzero;stroke:none"
         transform="matrix(1.3333333,0,0,-1.3333333,429.7096,571.9388)"
         clip-path="url(#clipPath232)" />
      <path
         id="path233"
         d="M 0,0 H 3.218 V -5.956 H 7.437 V 0 h 3.217 V -14.364 H 7.437 V -8.88 H 3.218 v -5.484 H 0 Z"
         style="fill:#0d0d0d;fill-opacity:1;fill-rule:nonzero;stroke:none"
         transform="matrix(1.3333333,0,0,-1.3333333,438.29693,572.1472)"
         clip-path="url(#clipPath234)" />
      <path
         id="path235"
         d="m 0,0 h 3.257 l 4.99,-8.419 V 0 h 3.218 V -14.364 H 8.247 l -5.01,8.271 v -8.271 H 0 Z"
         style="fill:#0d0d0d;fill-opacity:1;fill-rule:nonzero;stroke:none"
         transform="matrix(1.3333333,0,0,-1.3333333,454.75907,572.1472)"
         clip-path="url(#clipPath236)" />
      <path
         id="path237"
         d="M 0,0 C 2.031,0 2.624,0.735 2.624,4.238 2.624,8.207 2.006,8.692 0,8.692 -1.947,8.692 -2.635,8.339 -2.635,4.238 -2.635,0.726 -2.218,0 0,0 m 0,11.616 c 3.395,0 5.842,-0.647 5.842,-7.378 0,-6.338 -2.311,-7.162 -5.842,-7.162 -3.533,0 -5.854,0.628 -5.854,7.162 0,6.731 2.557,7.378 5.854,7.378"
         style="fill:#0d0d0d;fill-opacity:1;fill-rule:nonzero;stroke:none"
         transform="matrix(1.3333333,0,0,-1.3333333,479.84373,587.5052)"
         clip-path="url(#clipPath238)" />
      <path
         id="path239"
         d="m 0,0 h 3.218 v -10.42 c 0,-1.04 0.648,-1.02 1.217,-1.02 h 4.533 v -2.924 H 3.11 c -1.663,0 -3.11,0.696 -3.11,2.914 z"
         style="fill:#0d0d0d;fill-opacity:1;fill-rule:nonzero;stroke:none"
         transform="matrix(1.3333333,0,0,-1.3333333,489.62107,572.1472)"
         clip-path="url(#clipPath240)" />
      <path
         id="path241"
         d="M 0,0 C 2.031,0 2.624,0.735 2.624,4.238 2.624,8.207 2.007,8.692 0,8.692 -1.947,8.692 -2.634,8.339 -2.634,4.238 -2.634,0.726 -2.218,0 0,0 m 0,11.616 c 3.396,0 5.843,-0.647 5.843,-7.378 0,-6.338 -2.311,-7.162 -5.843,-7.162 -3.532,0 -5.853,0.628 -5.853,7.162 0,6.731 2.557,7.378 5.853,7.378"
         style="fill:#0d0d0d;fill-opacity:1;fill-rule:nonzero;stroke:none"
         transform="matrix(1.3333333,0,0,-1.3333333,510.93613,587.5052)"
         clip-path="url(#clipPath242)" />
      <path
         id="path243"
         d="m 0,0 c 2.596,0 3.39,-0.068 5.721,-0.677 v -2.482 c -0.118,0 -2.483,0.383 -4.838,0.383 -2.016,0 -2.389,-1.133 -2.389,-4.524 0,-3.502 0.289,-4.331 2.188,-4.341 1.285,-0.005 2.002,0.903 2.002,0.903 v 2.085 H 1.139 v 2.011 c 0.857,0.408 2.06,0.491 3.428,0.491 0.412,0 0.864,-0.02 1.334,-0.059 v -8.311 h -2.29 l -0.888,0.962 c -0.599,-0.647 -1.159,-0.986 -2.777,-1.059 -4.061,-0.201 -4.671,3.286 -4.671,7.358 C -4.725,-2.997 -3.904,0 0,0"
         style="fill:#0d0d0d;fill-opacity:1;fill-rule:nonzero;stroke:none"
         transform="matrix(1.3333333,0,0,-1.3333333,526.57547,571.9388)"
         clip-path="url(#clipPath244)" />
      <path
         id="path245"
         d="M 0,0 2.473,-6.652 5.16,0 H 8.663 L 4.022,-10.146 v -4.218 H 0.805 v 4.218 L -3.503,0 Z"
         style="fill:#0d0d0d;fill-opacity:1;fill-rule:nonzero;stroke:none"
         transform="matrix(1.3333333,0,0,-1.3333333,540.65107,572.1472)"
         clip-path="url(#clipPath246)" />
    </g>
  </g>
</svg>
